<mxfile host="app.diagrams.net" modified="2023-05-04T09:18:05.304Z" agent="Mozilla/5.0 (Windows NT 10.0; Win64; x64) AppleWebKit/537.36 (KHTML, like Gecko) Chrome/112.0.0.0 Safari/537.36" etag="Uhtc7Dr9MBQsiSPnqSgS" version="21.2.7" type="device">
  <diagram name="Page-1" id="McdJuczjEffqz_6UoNn5">
    <mxGraphModel dx="1290" dy="541" grid="1" gridSize="10" guides="1" tooltips="1" connect="1" arrows="1" fold="1" page="1" pageScale="1" pageWidth="850" pageHeight="1100" math="0" shadow="0">
      <root>
        <mxCell id="0" />
        <mxCell id="1" parent="0" />
        <mxCell id="H1vpS9QQzf7doZmdfUMT-3" value="" style="edgeStyle=orthogonalEdgeStyle;rounded=0;orthogonalLoop=1;jettySize=auto;html=1;" parent="1" source="H1vpS9QQzf7doZmdfUMT-1" target="H1vpS9QQzf7doZmdfUMT-2" edge="1">
          <mxGeometry relative="1" as="geometry" />
        </mxCell>
        <mxCell id="H1vpS9QQzf7doZmdfUMT-1" value="&lt;font style=&quot;font-size: 14px;&quot;&gt;Start&lt;/font&gt;" style="ellipse;whiteSpace=wrap;html=1;" parent="1" vertex="1">
          <mxGeometry x="365" y="40" width="95" height="40" as="geometry" />
        </mxCell>
        <mxCell id="H1vpS9QQzf7doZmdfUMT-5" value="" style="edgeStyle=orthogonalEdgeStyle;rounded=0;orthogonalLoop=1;jettySize=auto;html=1;" parent="1" source="H1vpS9QQzf7doZmdfUMT-2" target="H1vpS9QQzf7doZmdfUMT-4" edge="1">
          <mxGeometry relative="1" as="geometry" />
        </mxCell>
        <mxCell id="H1vpS9QQzf7doZmdfUMT-2" value="&lt;font style=&quot;font-size: 14px;&quot;&gt;Query input&lt;/font&gt;" style="shape=parallelogram;perimeter=parallelogramPerimeter;whiteSpace=wrap;html=1;fixedSize=1;" parent="1" vertex="1">
          <mxGeometry x="356.25" y="120" width="112.5" height="40" as="geometry" />
        </mxCell>
        <mxCell id="H1vpS9QQzf7doZmdfUMT-7" value="" style="edgeStyle=orthogonalEdgeStyle;rounded=0;orthogonalLoop=1;jettySize=auto;html=1;" parent="1" source="H1vpS9QQzf7doZmdfUMT-4" target="H1vpS9QQzf7doZmdfUMT-6" edge="1">
          <mxGeometry relative="1" as="geometry" />
        </mxCell>
        <mxCell id="H1vpS9QQzf7doZmdfUMT-4" value="&lt;font style=&quot;font-size: 14px;&quot;&gt;NL processing&lt;/font&gt;" style="whiteSpace=wrap;html=1;" parent="1" vertex="1">
          <mxGeometry x="352.5" y="190" width="120" height="50" as="geometry" />
        </mxCell>
        <mxCell id="H1vpS9QQzf7doZmdfUMT-9" value="" style="edgeStyle=orthogonalEdgeStyle;rounded=0;orthogonalLoop=1;jettySize=auto;html=1;" parent="1" source="H1vpS9QQzf7doZmdfUMT-6" target="H1vpS9QQzf7doZmdfUMT-8" edge="1">
          <mxGeometry relative="1" as="geometry" />
        </mxCell>
        <mxCell id="H1vpS9QQzf7doZmdfUMT-6" value="&lt;font style=&quot;font-size: 14px;&quot;&gt;Is query&lt;br&gt;&amp;nbsp;valid?&lt;/font&gt;" style="rhombus;whiteSpace=wrap;html=1;" parent="1" vertex="1">
          <mxGeometry x="361.25" y="260" width="102.5" height="60" as="geometry" />
        </mxCell>
        <mxCell id="H1vpS9QQzf7doZmdfUMT-11" value="" style="edgeStyle=orthogonalEdgeStyle;rounded=0;orthogonalLoop=1;jettySize=auto;html=1;" parent="1" source="H1vpS9QQzf7doZmdfUMT-8" target="H1vpS9QQzf7doZmdfUMT-10" edge="1">
          <mxGeometry relative="1" as="geometry" />
        </mxCell>
        <mxCell id="H1vpS9QQzf7doZmdfUMT-8" value="&lt;font style=&quot;font-size: 14px;&quot;&gt;Response&lt;/font&gt;" style="whiteSpace=wrap;html=1;" parent="1" vertex="1">
          <mxGeometry x="352.5" y="370" width="120" height="40" as="geometry" />
        </mxCell>
        <mxCell id="H1vpS9QQzf7doZmdfUMT-13" value="" style="edgeStyle=orthogonalEdgeStyle;rounded=0;orthogonalLoop=1;jettySize=auto;html=1;" parent="1" source="H1vpS9QQzf7doZmdfUMT-10" target="H1vpS9QQzf7doZmdfUMT-12" edge="1">
          <mxGeometry relative="1" as="geometry" />
        </mxCell>
        <mxCell id="H1vpS9QQzf7doZmdfUMT-10" value="&lt;font style=&quot;font-size: 14px;&quot;&gt;want to enter &lt;br&gt;another &lt;br&gt;query?&lt;/font&gt;" style="rhombus;whiteSpace=wrap;html=1;" parent="1" vertex="1">
          <mxGeometry x="312.81" y="440" width="199.37" height="80" as="geometry" />
        </mxCell>
        <mxCell id="H1vpS9QQzf7doZmdfUMT-12" value="&lt;font style=&quot;font-size: 14px;&quot;&gt;End&lt;/font&gt;" style="ellipse;whiteSpace=wrap;html=1;" parent="1" vertex="1">
          <mxGeometry x="372.49" y="560" width="80" height="40" as="geometry" />
        </mxCell>
        <mxCell id="H1vpS9QQzf7doZmdfUMT-14" value="Yes" style="text;html=1;align=center;verticalAlign=middle;resizable=0;points=[];autosize=1;strokeColor=none;fillColor=none;" parent="1" vertex="1">
          <mxGeometry x="405" y="330" width="40" height="30" as="geometry" />
        </mxCell>
        <mxCell id="H1vpS9QQzf7doZmdfUMT-15" value="" style="endArrow=classic;html=1;rounded=0;entryX=0;entryY=0.5;entryDx=0;entryDy=0;" parent="1" target="H1vpS9QQzf7doZmdfUMT-2" edge="1">
          <mxGeometry width="50" height="50" relative="1" as="geometry">
            <mxPoint x="280" y="180" as="sourcePoint" />
            <mxPoint x="450" y="210" as="targetPoint" />
            <Array as="points">
              <mxPoint x="280" y="140" />
            </Array>
          </mxGeometry>
        </mxCell>
        <mxCell id="H1vpS9QQzf7doZmdfUMT-17" value="No" style="text;html=1;align=center;verticalAlign=middle;resizable=0;points=[];autosize=1;strokeColor=none;fillColor=none;" parent="1" vertex="1">
          <mxGeometry x="325" y="290" width="40" height="30" as="geometry" />
        </mxCell>
        <mxCell id="H1vpS9QQzf7doZmdfUMT-20" value="" style="endArrow=classic;html=1;rounded=0;exitX=1;exitY=0.5;exitDx=0;exitDy=0;entryX=1;entryY=0.5;entryDx=0;entryDy=0;" parent="1" source="H1vpS9QQzf7doZmdfUMT-10" target="H1vpS9QQzf7doZmdfUMT-2" edge="1">
          <mxGeometry width="50" height="50" relative="1" as="geometry">
            <mxPoint x="360" y="390" as="sourcePoint" />
            <mxPoint x="410" y="340" as="targetPoint" />
            <Array as="points">
              <mxPoint x="550" y="480" />
              <mxPoint x="550" y="140" />
            </Array>
          </mxGeometry>
        </mxCell>
        <mxCell id="H1vpS9QQzf7doZmdfUMT-21" value="&lt;span style=&quot;color: rgb(0, 0, 0); font-family: Helvetica; font-size: 12px; font-style: normal; font-variant-ligatures: normal; font-variant-caps: normal; font-weight: 400; letter-spacing: normal; orphans: 2; text-align: center; text-indent: 0px; text-transform: none; widows: 2; word-spacing: 0px; -webkit-text-stroke-width: 0px; background-color: rgb(251, 251, 251); text-decoration-thickness: initial; text-decoration-style: initial; text-decoration-color: initial; float: none; display: inline !important;&quot;&gt;Yes&lt;/span&gt;" style="text;whiteSpace=wrap;html=1;" parent="1" vertex="1">
          <mxGeometry x="520" y="450" width="50" height="40" as="geometry" />
        </mxCell>
        <mxCell id="H1vpS9QQzf7doZmdfUMT-22" value="No" style="text;html=1;align=center;verticalAlign=middle;resizable=0;points=[];autosize=1;strokeColor=none;fillColor=none;" parent="1" vertex="1">
          <mxGeometry x="405" y="520" width="40" height="30" as="geometry" />
        </mxCell>
        <mxCell id="H1vpS9QQzf7doZmdfUMT-24" value="Display&amp;nbsp;&amp;nbsp;&lt;br&gt;&quot;Sorry I don&#39;t understand&quot;" style="rounded=0;whiteSpace=wrap;html=1;" parent="1" vertex="1">
          <mxGeometry x="220" y="180" width="92.81" height="50" as="geometry" />
        </mxCell>
        <mxCell id="H1vpS9QQzf7doZmdfUMT-25" value="" style="endArrow=classic;html=1;rounded=0;entryX=0.652;entryY=1.018;entryDx=0;entryDy=0;entryPerimeter=0;" parent="1" target="H1vpS9QQzf7doZmdfUMT-24" edge="1">
          <mxGeometry width="50" height="50" relative="1" as="geometry">
            <mxPoint x="360" y="290" as="sourcePoint" />
            <mxPoint x="290" y="280" as="targetPoint" />
            <Array as="points">
              <mxPoint x="280" y="290" />
            </Array>
          </mxGeometry>
        </mxCell>
      </root>
    </mxGraphModel>
  </diagram>
</mxfile>
